<svg id="Layer_1" data-name="Layer 1" xmlns="http://www.w3.org/2000/svg" viewBox="0 0 40 40"><circle cx="20" cy="20" r="19.54" style="fill:#fbe4ff"/><path d="M15.75,19.84a4.18,4.18,0,0,0,.05-.77,4.13,4.13,0,0,0-.53-2.19,2.43,2.43,0,0,0-1.43-1.16,1.85,1.85,0,0,1,.36,1.17,2.1,2.1,0,0,1-.64,1.64,2.29,2.29,0,0,1-1.62.6A2.7,2.7,0,0,1,11,19a2.58,2.58,0,0,1-.76-.48,2.31,2.31,0,0,1-.53-.76,2.72,2.72,0,0,1,0-2.07,2.53,2.53,0,0,1,.62-.86,3,3,0,0,1,1-.58A3.66,3.66,0,0,1,12.66,14a5.33,5.33,0,0,1,2.09.39,4.46,4.46,0,0,1,1.6,1.07,4.74,4.74,0,0,1,1,1.64,6,6,0,0,1,.37,2.11c0,.14,0,.26,0,.36l0,.28h1.79V14.16h2V25.73h-2v-4.1h-2a4.62,4.62,0,0,1-.93,1.7A5.31,5.31,0,0,1,15,24.57a7.23,7.23,0,0,1-2,.76,9.86,9.86,0,0,1-2.36.27,11.51,11.51,0,0,1-2.53-.26,6.7,6.7,0,0,1-1.93-.72A3.56,3.56,0,0,1,5,23.47,2.75,2.75,0,0,1,4.57,22a2,2,0,0,1,.62-1.55,2.46,2.46,0,0,1,1.71-.56Zm-5,3.86a6.87,6.87,0,0,0,2.93-.55,3.36,3.36,0,0,0,1.68-1.52H7.2c-.39,0-.58.17-.58.53a.85.85,0,0,0,.3.62,2.56,2.56,0,0,0,.83.49,7.05,7.05,0,0,0,1.3.32A12.34,12.34,0,0,0,10.75,23.7Zm2-7.09a1.16,1.16,0,0,0-.15-.6,1.1,1.1,0,0,0-.4-.4,1,1,0,0,0-.68.28,1,1,0,0,0-.28.73.94.94,0,0,0,.22.64.66.66,0,0,0,.54.25.65.65,0,0,0,.55-.26A1,1,0,0,0,12.75,16.61Z" style="fill:#0e0e0e"/><path d="M29.9,26.86a7,7,0,0,1-2.75-.49A5.24,5.24,0,0,1,25.22,25a5.83,5.83,0,0,1-1.14-2.15,9.61,9.61,0,0,1-.38-2.77v-.15a8.26,8.26,0,0,1,.46-2.8A6.33,6.33,0,0,1,25.42,15a5.58,5.58,0,0,1,1.92-1.37,6,6,0,0,1,2.4-.48,7,7,0,0,1,2.15.31,4.67,4.67,0,0,1,1.7,1A4.85,4.85,0,0,1,34.74,16a6.72,6.72,0,0,1,.54,2.35H31.47A2.56,2.56,0,0,0,31,17a1.52,1.52,0,0,0-1.21-.49,1.79,1.79,0,0,0-1.58.87,4.75,4.75,0,0,0-.57,2.57v.15a4.72,4.72,0,0,0,.57,2.55,1.84,1.84,0,0,0,1.65.88,1.87,1.87,0,0,0,1.3-.47,2.19,2.19,0,0,0,.62-1.48h3.69a7.14,7.14,0,0,1-.51,2.31,4.83,4.83,0,0,1-1.17,1.67,5.06,5.06,0,0,1-1.71,1A6.45,6.45,0,0,1,29.9,26.86Z" style="fill:#8a46e3"/></svg>