<svg id="Layer_1" data-name="Layer 1" xmlns="http://www.w3.org/2000/svg" viewBox="0 0 200 40"><path d="M34.2,22a8.71,8.71,0,0,0,.07-1.15,6.22,6.22,0,0,0-.79-3.26,3.61,3.61,0,0,0-2.14-1.73,2.78,2.78,0,0,1,.55,1.74,3.16,3.16,0,0,1-1,2.45,3.43,3.43,0,0,1-2.41.88,3.77,3.77,0,0,1-1.39-.25A3.49,3.49,0,0,1,26,20a3.33,3.33,0,0,1-.79-1.14,3.67,3.67,0,0,1-.3-1.51,3.93,3.93,0,0,1,.32-1.57,3.83,3.83,0,0,1,.92-1.27,4.42,4.42,0,0,1,1.48-.87,5.79,5.79,0,0,1,2-.32,8.13,8.13,0,0,1,3.11.57,6.89,6.89,0,0,1,2.37,1.6,7,7,0,0,1,1.52,2.45,8.58,8.58,0,0,1,.55,3.13c0,.21,0,.39,0,.54l0,.42h2.65V13.55h2.93V30.77H39.75v-6.1h-3a7,7,0,0,1-1.39,2.53,8.37,8.37,0,0,1-2.27,1.85,11.74,11.74,0,0,1-3,1.13,15.15,15.15,0,0,1-3.51.4,17.36,17.36,0,0,1-3.77-.38A10.23,10.23,0,0,1,20,29.12a5.37,5.37,0,0,1-1.82-1.71,4.2,4.2,0,0,1-.64-2.27,3,3,0,0,1,.92-2.31A3.71,3.71,0,0,1,21,22Zm-7.45,5.74a10.25,10.25,0,0,0,4.36-.82,5.06,5.06,0,0,0,2.5-2.26H21.46c-.57,0-.86.26-.86.78a1.29,1.29,0,0,0,.44.93,3.85,3.85,0,0,0,1.25.72,8.62,8.62,0,0,0,1.93.48A17.47,17.47,0,0,0,26.75,27.75Zm3-10.56a1.67,1.67,0,0,0-.22-.88,1.7,1.7,0,0,0-.59-.6,1.48,1.48,0,0,0-1,.42,1.44,1.44,0,0,0-.41,1.09,1.4,1.4,0,0,0,.32,1,1.06,1.06,0,0,0,.82.36,1,1,0,0,0,.81-.37A1.6,1.6,0,0,0,29.72,17.19Z" style="fill:#0e0e0e"/><path d="M52.26,13.3a7.29,7.29,0,0,1,2.81.54,6.93,6.93,0,0,1,2.26,1.54,7.18,7.18,0,0,1,1.5,2.4,8.57,8.57,0,0,1,.54,3.11,11.59,11.59,0,0,1-.22,2.35A13.31,13.31,0,0,1,58.66,25h3.22V13.55h3V27.63H54.41l.93-2a8.27,8.27,0,0,0,.72-2,11.16,11.16,0,0,0,.26-2.52A7,7,0,0,0,56,19.11a4.92,4.92,0,0,0-.84-1.61,3.75,3.75,0,0,0-1.32-1.05,3.89,3.89,0,0,0-1.73-.38A4,4,0,0,0,49.2,17.2a5,5,0,0,0-1.39,3,3.09,3.09,0,0,1,2.34-1,3.8,3.8,0,0,1,1.55.31,3.54,3.54,0,0,1,1.23.87,4.17,4.17,0,0,1,.81,1.34,5.31,5.31,0,0,1-.05,3.6,4.47,4.47,0,0,1-.92,1.41,3.87,3.87,0,0,1-1.37.91,4.25,4.25,0,0,1-1.67.33,4.16,4.16,0,0,1-1.93-.45,4.26,4.26,0,0,1-1.49-1.29,6.59,6.59,0,0,1-1-2.05A9.78,9.78,0,0,1,45,21.42a9.85,9.85,0,0,1,.54-3.35,7.65,7.65,0,0,1,1.51-2.56,6.69,6.69,0,0,1,2.3-1.64A7.28,7.28,0,0,1,52.26,13.3Zm-2.68,8.34a1.46,1.46,0,0,0-1,.35,2.79,2.79,0,0,0-.67.94,2.87,2.87,0,0,0,.53,1.68,1.5,1.5,0,0,0,1.24.62,1.32,1.32,0,0,0,1-.49,2.23,2.23,0,0,0,0-2.62A1.47,1.47,0,0,0,49.58,21.64Z" style="fill:#0e0e0e"/><path d="M56.26,7.56a1.92,1.92,0,0,1,1.44.57,2,2,0,0,1,.55,1.43A2,2,0,0,1,57.71,11a1.85,1.85,0,0,1-1.4.57A1.92,1.92,0,0,1,54.87,11a2,2,0,0,1-.56-1.43,2,2,0,0,1,.56-1.43A1.85,1.85,0,0,1,56.26,7.56Z" style="fill:#0e0e0e"/><path d="M101.41,13.3a7.29,7.29,0,0,1,2.81.54,6.93,6.93,0,0,1,2.26,1.54,7.18,7.18,0,0,1,1.5,2.4,8.57,8.57,0,0,1,.54,3.11,11.59,11.59,0,0,1-.22,2.35,13.2,13.2,0,0,1-.5,1.73H111V13.55h3V27.63H103.47l1-2a8.27,8.27,0,0,0,.72-2,11.16,11.16,0,0,0,.26-2.52,6.7,6.7,0,0,0-.3-2.06,4.72,4.72,0,0,0-.83-1.61A3.75,3.75,0,0,0,103,16.45a3.89,3.89,0,0,0-1.73-.38,4,4,0,0,0-2.94,1.13,5,5,0,0,0-1.39,3,3.07,3.07,0,0,1,2.34-1,3.8,3.8,0,0,1,1.55.31,3.54,3.54,0,0,1,1.23.87,4.17,4.17,0,0,1,.81,1.34,5,5,0,0,1,.29,1.74,4.78,4.78,0,0,1-.34,1.86,4.47,4.47,0,0,1-.92,1.41,3.87,3.87,0,0,1-1.37.91,4.25,4.25,0,0,1-1.67.33A4.16,4.16,0,0,1,97,27.47a4.26,4.26,0,0,1-1.49-1.29,6.17,6.17,0,0,1-.95-2.05,9.78,9.78,0,0,1-.35-2.71,9.85,9.85,0,0,1,.54-3.35,7.65,7.65,0,0,1,1.51-2.56,6.69,6.69,0,0,1,2.3-1.64A7.28,7.28,0,0,1,101.41,13.3Zm-2.68,8.34a1.46,1.46,0,0,0-1,.35,2.79,2.79,0,0,0-.67.94,2.94,2.94,0,0,0,.52,1.68,1.52,1.52,0,0,0,1.25.62,1.32,1.32,0,0,0,1-.49,2.23,2.23,0,0,0,0-2.62A1.47,1.47,0,0,0,98.73,21.64Z" style="fill:#0e0e0e"/><path d="M76.63,13.23a9.47,9.47,0,0,1,3,.43A11.71,11.71,0,0,1,82,14.77a6.13,6.13,0,0,1,1.08-.62c.41-.18.83-.35,1.24-.49a10.52,10.52,0,0,1,1.22-.32,6,6,0,0,1,1-.11,6.29,6.29,0,0,1,2.71.57,6.06,6.06,0,0,1,2,1.57,7.16,7.16,0,0,1,1.26,2.35A9.27,9.27,0,0,1,93,20.65,13,13,0,0,1,92.83,23a13.41,13.41,0,0,1-.52,2,12.86,12.86,0,0,1-.72,1.68A11.72,11.72,0,0,1,90.76,28l-2.33-1.82a9.93,9.93,0,0,0,1.09-2.4A10.7,10.7,0,0,0,90,20.54a5.06,5.06,0,0,0-1-3.34A3.3,3.3,0,0,0,86.29,16a4.57,4.57,0,0,0-1.19.14,3.76,3.76,0,0,0-.88.37,6.69,6.69,0,0,1,1,1.16A9,9,0,0,1,86,19.08a9.57,9.57,0,0,1,.52,1.67,8.14,8.14,0,0,1,.2,1.77,7.16,7.16,0,0,1-.33,2.26,4.74,4.74,0,0,1-.92,1.66,4.07,4.07,0,0,1-1.4,1,4.54,4.54,0,0,1-3.52,0,3.69,3.69,0,0,1-1.35-1,4.91,4.91,0,0,1-.89-1.67A7.63,7.63,0,0,1,78,22.52a8.13,8.13,0,0,1,.19-1.7,9,9,0,0,1,.49-1.6,8.78,8.78,0,0,1,1.61-2.55,6.34,6.34,0,0,0-1.61-.56,10.65,10.65,0,0,0-2.18-.19,7.29,7.29,0,0,0-2.12.29,6,6,0,0,0-1.77.84,4.94,4.94,0,0,0-1.29,1.29A4.07,4.07,0,0,0,70.63,20a3,3,0,0,1,2.26-.92,3.8,3.8,0,0,1,1.55.31,3.54,3.54,0,0,1,1.23.87,4.17,4.17,0,0,1,.81,1.34,5.31,5.31,0,0,1,0,3.6,4.47,4.47,0,0,1-.92,1.41,3.87,3.87,0,0,1-1.37.91,4.42,4.42,0,0,1-3.6-.11,4.11,4.11,0,0,1-1.48-1.25,6.07,6.07,0,0,1-1-1.94,8.8,8.8,0,0,1-.35-2.56,8.82,8.82,0,0,1,.67-3.53,7.53,7.53,0,0,1,1.85-2.66,8.31,8.31,0,0,1,2.82-1.67A10.6,10.6,0,0,1,76.63,13.23Zm-4.31,8.34a1.43,1.43,0,0,0-1,.37,2.69,2.69,0,0,0-.69,1,4.16,4.16,0,0,0,.59,1.62,1.38,1.38,0,0,0,1.21.62,1.32,1.32,0,0,0,1-.49,2.23,2.23,0,0,0,0-2.62A1.47,1.47,0,0,0,72.32,21.57Zm11.49.82a8,8,0,0,0-.43-2.69,4.5,4.5,0,0,0-1.07-1.77,4.29,4.29,0,0,0-1,1.78,9,9,0,0,0-.36,2.7,4.21,4.21,0,0,0,.4,2.1,1.18,1.18,0,0,0,1.05.68,1.15,1.15,0,0,0,1-.69A4.4,4.4,0,0,0,83.81,22.39Z" style="fill:#0e0e0e"/><path d="M193.24,19.68v-.26l-7.88-4.15V11.16l11.44,6.78v3.21l-11.44,6.79V23.82Z" style="fill:#0e0e0e"/><path d="M14.54,23.82v4.12L3.1,21.15V17.94l11.44-6.78v4.11L6.66,19.42v.26Z" style="fill:#0e0e0e"/><path d="M126.94,30.25a10.67,10.67,0,0,1-4.14-.74,7.62,7.62,0,0,1-2.92-2.09,8.7,8.7,0,0,1-1.72-3.23A14.5,14.5,0,0,1,117.6,20v-.22a12.43,12.43,0,0,1,.68-4.21,9.53,9.53,0,0,1,1.91-3.22,8.27,8.27,0,0,1,2.89-2.06,8.86,8.86,0,0,1,3.61-.73,10.5,10.5,0,0,1,3.25.48,6.82,6.82,0,0,1,2.55,1.44,7.08,7.08,0,0,1,1.75,2.45,10.54,10.54,0,0,1,.81,3.53H129.3a3.76,3.76,0,0,0-.76-2.15,2.3,2.3,0,0,0-1.82-.74,2.71,2.71,0,0,0-2.39,1.32,7.12,7.12,0,0,0-.86,3.86V20a7.15,7.15,0,0,0,.86,3.85,3,3,0,0,0,4.45.61,3.3,3.3,0,0,0,.94-2.22h5.55a10.36,10.36,0,0,1-.77,3.48,7.28,7.28,0,0,1-1.76,2.51,7.43,7.43,0,0,1-2.58,1.52A9.58,9.58,0,0,1,126.94,30.25Z" style="fill:#8a46e3"/><path d="M143.51,30.25a7.87,7.87,0,0,1-2.81-.49,6.3,6.3,0,0,1-2.27-1.45A6.71,6.71,0,0,1,136.91,26a8.54,8.54,0,0,1-.56-3.2v-.23a8.69,8.69,0,0,1,.56-3.2,7.05,7.05,0,0,1,1.51-2.41,6.59,6.59,0,0,1,2.27-1.53,7.59,7.59,0,0,1,2.84-.53,7.42,7.42,0,0,1,2.8.52,6.57,6.57,0,0,1,2.26,1.48,7,7,0,0,1,1.52,2.37,8.52,8.52,0,0,1,.55,3.16v.23a8.78,8.78,0,0,1-.55,3.23,7.05,7.05,0,0,1-1.53,2.4,6.54,6.54,0,0,1-2.27,1.49A7.42,7.42,0,0,1,143.51,30.25Zm0-4.09c1.48,0,2.21-1.17,2.21-3.52v-.2a5.08,5.08,0,0,0-.54-2.61,1.83,1.83,0,0,0-1.67-.89,1.94,1.94,0,0,0-1.7.85,4.54,4.54,0,0,0-.59,2.57v.22C141.24,25,142,26.16,143.53,26.16Z" style="fill:#8a46e3"/><path d="M157.12,30.25a4.82,4.82,0,0,1-2.05-.45,4.75,4.75,0,0,1-1.71-1.38,7.07,7.07,0,0,1-1.16-2.35,11.5,11.5,0,0,1-.43-3.35V22.5a11.64,11.64,0,0,1,.43-3.35,7.29,7.29,0,0,1,1.15-2.39,4.71,4.71,0,0,1,1.7-1.43,4.63,4.63,0,0,1,2.07-.48,4.24,4.24,0,0,1,2.46.65,4.35,4.35,0,0,1,1.48,1.76V8.89h4.84v21h-4.84V27.54a4.91,4.91,0,0,1-1.48,1.93A3.81,3.81,0,0,1,157.12,30.25Zm1.8-4.2a1.88,1.88,0,0,0,1.68-.87,4.59,4.59,0,0,0,.58-2.57v-.23a4.84,4.84,0,0,0-.56-2.56,1.87,1.87,0,0,0-1.68-.88c-1.5,0-2.26,1.16-2.26,3.47v.23a4.58,4.58,0,0,0,.58,2.56A1.87,1.87,0,0,0,158.92,26.05Z" style="fill:#8a46e3"/><path d="M174.7,30.25a8,8,0,0,1-2.85-.49,6.16,6.16,0,0,1-2.25-1.44A6.71,6.71,0,0,1,168.11,26a9,9,0,0,1-.54-3.22v-.23a8.67,8.67,0,0,1,.57-3.22,7.28,7.28,0,0,1,1.52-2.42,6.48,6.48,0,0,1,2.26-1.52,7.21,7.21,0,0,1,2.78-.54,7.35,7.35,0,0,1,2.57.45,5.66,5.66,0,0,1,2.13,1.39A6.84,6.84,0,0,1,180.85,19a9.66,9.66,0,0,1,.54,3.4v1.34h-8.93a3.28,3.28,0,0,0,.74,2,2.17,2.17,0,0,0,1.67.69,2,2,0,0,0,1.47-.46,2.24,2.24,0,0,0,.55-1.11h4.52a5.74,5.74,0,0,1-2,3.94A7.29,7.29,0,0,1,174.7,30.25Zm2-9.35a3.47,3.47,0,0,0-.54-1.85,1.71,1.71,0,0,0-1.48-.67,1.92,1.92,0,0,0-1.47.63,3.22,3.22,0,0,0-.74,1.89Z" style="fill:#8a46e3"/></svg>